# xmcd CD database file
#
# Track frame offsets:
#	150
#	10117
#	20787
#	32772
#	44490
#	61935
#	76837
#	90095
#	100192
#	117517
#	130140
#	142522
#	151345
#	164817
#	176840
#	188062
#	200522
#	214637
#	227087
#
# Disc length: 3219 seconds
#
# Revision: 0
# Processed by: cddbd v1.5.2PL0 Copyright (c) Steve Scherf et al.
# Submitted via: CdAid (MTCDDB.DLL V2003.12.21)
#
DISCID=f50c9113
DTITLE=Lynn Anderson - Legends
DYEAR=1994
DGENRE=Country
TTITLE0=What A Man My Man Is
TTITLE1=Silver Treads and Golden Needles
TTITLE2=How Dan I Unlove You
TTITLE3=You're My Man
TTITLE4=Close To You
TTITLE5=We've Only Just Begun
TTITLE6=Top Of The World
TTITLE7=Fool Me
TTITLE8=Midnight Train To Georgia
TTITLE9=It Must Be
TTITLE10=Listen To A Country Song
TTITLE11=Ride Ride Ride
TTITLE12=Keep Me In Mind
TTITLE13=You Don't Have To Say You Love Me
TTITLE14=Even Cowgirls Get To Blues
TTITLE15=I Never Loved Anyone Before
TTITLE16=Where's The Fire
TTITLE17=(I Never Promised You A) Rose Garden
TTITLE18=Cry
EXTD=ID3G:   2 YEAR: 1994
EXTT0=
EXTT1=
EXTT2=
EXTT3=
EXTT4=
EXTT5=
EXTT6=
EXTT7=
EXTT8=
EXTT9=
EXTT10=
EXTT11=
EXTT12=
EXTT13=
EXTT14=
EXTT15=
EXTT16=
EXTT17=
EXTT18=
PLAYORDER=
